<svg width="119" height="15" viewBox="0 0 119 15" fill="none" xmlns="http://www.w3.org/2000/svg">
<path d="M10.5576 14H7.9209V8.51562H2.7793V14H0.142578V1.20312H2.7793V6.38867H7.9209V1.20312H10.5576V14ZM18.2129 14C18.0957 13.7715 18.0107 13.4873 17.958 13.1475C17.3428 13.833 16.543 14.1758 15.5586 14.1758C14.627 14.1758 13.8535 13.9062 13.2383 13.3672C12.6289 12.8281 12.3242 12.1484 12.3242 11.3281C12.3242 10.3203 12.6963 9.54688 13.4404 9.00781C14.1904 8.46875 15.2715 8.19629 16.6836 8.19043H17.8525V7.64551C17.8525 7.20605 17.7383 6.85449 17.5098 6.59082C17.2871 6.32715 16.9326 6.19531 16.4463 6.19531C16.0186 6.19531 15.6816 6.29785 15.4355 6.50293C15.1953 6.70801 15.0752 6.98926 15.0752 7.34668H12.5352C12.5352 6.7959 12.7051 6.28613 13.0449 5.81738C13.3848 5.34863 13.8652 4.98242 14.4863 4.71875C15.1074 4.44922 15.8047 4.31445 16.5781 4.31445C17.75 4.31445 18.6787 4.61035 19.3643 5.20215C20.0557 5.78809 20.4014 6.61426 20.4014 7.68066V11.8027C20.4072 12.7051 20.5332 13.3877 20.7793 13.8506V14H18.2129ZM16.1123 12.2334C16.4873 12.2334 16.833 12.1514 17.1494 11.9873C17.4658 11.8174 17.7002 11.5918 17.8525 11.3105V9.67578H16.9033C15.6318 9.67578 14.9551 10.1152 14.873 10.9941L14.8643 11.1436C14.8643 11.46 14.9756 11.7207 15.1982 11.9258C15.4209 12.1309 15.7256 12.2334 16.1123 12.2334ZM27.6963 6.87207C27.3506 6.8252 27.0459 6.80176 26.7822 6.80176C25.8213 6.80176 25.1914 7.12695 24.8926 7.77734V14H22.3525V4.49023H24.752L24.8223 5.62402C25.332 4.75098 26.0381 4.31445 26.9404 4.31445C27.2217 4.31445 27.4854 4.35254 27.7314 4.42871L27.6963 6.87207ZM34.6221 13.0332C33.9951 13.7949 33.1279 14.1758 32.0205 14.1758C31.001 14.1758 30.2217 13.8828 29.6826 13.2969C29.1494 12.7109 28.877 11.8525 28.8652 10.7217V4.49023H31.4053V10.6338C31.4053 11.624 31.8564 12.1191 32.7588 12.1191C33.6201 12.1191 34.2119 11.8203 34.5342 11.2227V4.49023H37.083V14H34.6924L34.6221 13.0332ZM53.6152 10.3086L55.3379 1.20312H57.9658L55.127 14H52.4727L50.3896 5.43945L48.3066 14H45.6523L42.8135 1.20312H45.4414L47.1729 10.291L49.2822 1.20312H51.5146L53.6152 10.3086ZM64.4434 14C64.3262 13.7715 64.2412 13.4873 64.1885 13.1475C63.5732 13.833 62.7734 14.1758 61.7891 14.1758C60.8574 14.1758 60.084 13.9062 59.4688 13.3672C58.8594 12.8281 58.5547 12.1484 58.5547 11.3281C58.5547 10.3203 58.9268 9.54688 59.6709 9.00781C60.4209 8.46875 61.502 8.19629 62.9141 8.19043H64.083V7.64551C64.083 7.20605 63.9688 6.85449 63.7402 6.59082C63.5176 6.32715 63.1631 6.19531 62.6768 6.19531C62.249 6.19531 61.9121 6.29785 61.666 6.50293C61.4258 6.70801 61.3057 6.98926 61.3057 7.34668H58.7656C58.7656 6.7959 58.9355 6.28613 59.2754 5.81738C59.6152 5.34863 60.0957 4.98242 60.7168 4.71875C61.3379 4.44922 62.0352 4.31445 62.8086 4.31445C63.9805 4.31445 64.9092 4.61035 65.5947 5.20215C66.2861 5.78809 66.6318 6.61426 66.6318 7.68066V11.8027C66.6377 12.7051 66.7637 13.3877 67.0098 13.8506V14H64.4434ZM62.3428 12.2334C62.7178 12.2334 63.0635 12.1514 63.3799 11.9873C63.6963 11.8174 63.9307 11.5918 64.083 11.3105V9.67578H63.1338C61.8623 9.67578 61.1855 10.1152 61.1035 10.9941L61.0947 11.1436C61.0947 11.46 61.2061 11.7207 61.4287 11.9258C61.6514 12.1309 61.9561 12.2334 62.3428 12.2334ZM73.9268 6.87207C73.5811 6.8252 73.2764 6.80176 73.0127 6.80176C72.0518 6.80176 71.4219 7.12695 71.123 7.77734V14H68.583V4.49023H70.9824L71.0527 5.62402C71.5625 4.75098 72.2686 4.31445 73.1709 4.31445C73.4521 4.31445 73.7158 4.35254 73.9619 4.42871L73.9268 6.87207ZM80.8525 13.0332C80.2256 13.7949 79.3584 14.1758 78.251 14.1758C77.2314 14.1758 76.4521 13.8828 75.9131 13.2969C75.3799 12.7109 75.1074 11.8525 75.0957 10.7217V4.49023H77.6357V10.6338C77.6357 11.624 78.0869 12.1191 78.9893 12.1191C79.8506 12.1191 80.4424 11.8203 80.7646 11.2227V4.49023H83.3135V14H80.9229L80.8525 13.0332ZM84.834 9.1748C84.834 7.69238 85.165 6.51172 85.8271 5.63281C86.4951 4.75391 87.4062 4.31445 88.5605 4.31445C89.4863 4.31445 90.251 4.66016 90.8545 5.35156V0.5H93.4033V14H91.1094L90.9863 12.9893C90.3535 13.7803 89.5391 14.1758 88.543 14.1758C87.4238 14.1758 86.5244 13.7363 85.8447 12.8574C85.1709 11.9727 84.834 10.7451 84.834 9.1748ZM87.374 9.35938C87.374 10.25 87.5293 10.9326 87.8398 11.4072C88.1504 11.8818 88.6016 12.1191 89.1934 12.1191C89.9785 12.1191 90.5322 11.7881 90.8545 11.126V7.37305C90.5381 6.71094 89.9902 6.37988 89.2109 6.37988C87.9863 6.37988 87.374 7.37305 87.374 9.35938ZM94.9766 9.15723C94.9766 8.21387 95.1582 7.37305 95.5215 6.63477C95.8848 5.89648 96.4062 5.3252 97.0859 4.9209C97.7715 4.5166 98.5654 4.31445 99.4678 4.31445C100.751 4.31445 101.797 4.70703 102.605 5.49219C103.42 6.27734 103.874 7.34375 103.968 8.69141L103.985 9.3418C103.985 10.8008 103.578 11.9727 102.764 12.8574C101.949 13.7363 100.856 14.1758 99.4854 14.1758C98.1143 14.1758 97.0186 13.7363 96.1982 12.8574C95.3838 11.9785 94.9766 10.7832 94.9766 9.27148V9.15723ZM97.5166 9.3418C97.5166 10.2441 97.6865 10.9355 98.0264 11.416C98.3662 11.8906 98.8525 12.1279 99.4854 12.1279C100.101 12.1279 100.581 11.8936 100.927 11.4248C101.272 10.9502 101.445 10.1943 101.445 9.15723C101.445 8.27246 101.272 7.58691 100.927 7.10059C100.581 6.61426 100.095 6.37109 99.4678 6.37109C98.8467 6.37109 98.3662 6.61426 98.0264 7.10059C97.6865 7.58105 97.5166 8.32812 97.5166 9.3418ZM108.134 10.0713H106.024L105.726 1.20312H108.433L108.134 10.0713ZM107.079 11.46C107.507 11.46 107.85 11.5859 108.107 11.8379C108.371 12.0898 108.503 12.4121 108.503 12.8047C108.503 13.1914 108.371 13.5107 108.107 13.7627C107.85 14.0146 107.507 14.1406 107.079 14.1406C106.657 14.1406 106.314 14.0146 106.051 13.7627C105.793 13.5107 105.664 13.1914 105.664 12.8047C105.664 12.418 105.793 12.0986 106.051 11.8467C106.314 11.5889 106.657 11.46 107.079 11.46ZM113.038 10.0713H110.929L110.63 1.20312H113.337L113.038 10.0713ZM111.983 11.46C112.411 11.46 112.754 11.5859 113.012 11.8379C113.275 12.0898 113.407 12.4121 113.407 12.8047C113.407 13.1914 113.275 13.5107 113.012 13.7627C112.754 14.0146 112.411 14.1406 111.983 14.1406C111.562 14.1406 111.219 14.0146 110.955 13.7627C110.697 13.5107 110.568 13.1914 110.568 12.8047C110.568 12.418 110.697 12.0986 110.955 11.8467C111.219 11.5889 111.562 11.46 111.983 11.46ZM117.942 10.0713H115.833L115.534 1.20312H118.241L117.942 10.0713ZM116.888 11.46C117.315 11.46 117.658 11.5859 117.916 11.8379C118.18 12.0898 118.312 12.4121 118.312 12.8047C118.312 13.1914 118.18 13.5107 117.916 13.7627C117.658 14.0146 117.315 14.1406 116.888 14.1406C116.466 14.1406 116.123 14.0146 115.859 13.7627C115.602 13.5107 115.473 13.1914 115.473 12.8047C115.473 12.418 115.602 12.0986 115.859 11.8467C116.123 11.5889 116.466 11.46 116.888 11.46Z" fill="black"/>
</svg>
